# xmcd
#
# Track frame offsets: 
#        150
#        21908
#        36113
#        51580
#
# Disc length: 955 seconds
#
# Revision: 0
# Processed by: cddbd v1.5.2PL0 Copyright (c) Steve Scherf et al.
# Submitted via: ExactAudioCopyFreeDBPlugin 1.0
#
DISCID=3103b904
DTITLE=Pete Van Dyk and The Second Hand Band - Telephone
DYEAR=2012
DGENRE=Blues
TTITLE0=Stay Cold
TTITLE1=Telephone
TTITLE2=Devil has a Daughter
TTITLE3=Evil Intentions
EXTD=
EXTT0=
EXTT1=
EXTT2=
EXTT3=
PLAYORDER=
